<svg xmlns="http://www.w3.org/2000/svg" xmlns:xlink="http://www.w3.org/1999/xlink" viewBox="0 0 3710 3710"><defs><style>.cls-1{fill:url(#linear-gradient);}.cls-2{fill:url(#linear-gradient-2);}.cls-3{isolation:isolate;}.cls-17,.cls-4,.cls-40{fill:#fff;}.cls-5{fill:#f4f7fa;}.cls-6{clip-path:url(#clip-path);}.cls-7{opacity:0.8;}.cls-13,.cls-16,.cls-17,.cls-40,.cls-7{mix-blend-mode:soft-light;}.cls-8{clip-path:url(#clip-path-2);}.cls-9{fill:#d8dee8;}.cls-10{fill:url(#linear-gradient-5);}.cls-11{fill:url(#linear-gradient-6);}.cls-12{fill:url(#linear-gradient-7);}.cls-14{fill:url(#linear-gradient-8);}.cls-15{fill:url(#linear-gradient-9);}.cls-16,.cls-17{opacity:0.5;}.cls-18{fill:url(#linear-gradient-10);}.cls-19{fill:url(#linear-gradient-11);}.cls-20{fill:url(#linear-gradient-12);}.cls-21{fill:url(#linear-gradient-13);}.cls-22{fill:url(#linear-gradient-14);}.cls-23{fill:url(#linear-gradient-15);}.cls-24{opacity:0.3;fill:url(#linear-gradient-16);}.cls-24,.cls-36,.cls-37{mix-blend-mode:multiply;}.cls-25{fill:url(#linear-gradient-17);}.cls-26{fill:url(#linear-gradient-18);}.cls-27{fill:url(#linear-gradient-19);}.cls-28{fill:url(#linear-gradient-20);}.cls-29{fill:url(#linear-gradient-21);}.cls-30{fill:url(#linear-gradient-22);}.cls-31{fill:url(#linear-gradient-23);}.cls-32{fill:url(#linear-gradient-24);}.cls-33{fill:url(#linear-gradient-25);}.cls-34{fill:url(#linear-gradient-26);}.cls-35{fill:url(#linear-gradient-27);}.cls-36,.cls-37{opacity:0.1;}.cls-36{fill:url(#linear-gradient-28);}.cls-37{fill:url(#linear-gradient-29);}.cls-38{fill:url(#linear-gradient-30);}.cls-39{fill:url(#linear-gradient-31);}.cls-40{opacity:0.4;}</style><linearGradient id="linear-gradient" x1="2354.48" y1="2474.62" x2="3084.87" y2="501.99" gradientUnits="userSpaceOnUse"><stop offset="0" stop-color="#e38ddd"/><stop offset="1" stop-color="#9571f6"/></linearGradient><linearGradient id="linear-gradient-2" x1="1813.79" y1="2279.87" x2="3230.52" y2="2279.87" gradientUnits="userSpaceOnUse"><stop offset="0" stop-color="#ff9085"/><stop offset="1" stop-color="#fb6fbb"/></linearGradient><clipPath id="clip-path"><path class="cls-1" d="M2952.06,683.56c-32.09-26.55-80.77-41-121.91-43.92-291.7-20.67-334.26,589-289.56,725.3s15.74,181-214,252.29-119.52,208.55-91.51,288.82,83.45,148.08-84,227.84-109.28,129.17-109.28,129.17,308.85,315.91,291.79,214.77,13.84-253.86,290.75-265.46c119.26-5,301.91-61.9,342.35-189.6,9.42-29.74,16-75.16,8.81-105.94-9.94-42.7-38-76.34-53.53-116.53-36.26-93.65,54.69-162.23,107-224.83,27.32-32.68,54.64-66.19,75.56-103.45,43.45-77.36,27.19-160.32-20.12-231.63-22.69-34.19-54.22-70.47-64.11-111.25-10.63-43.82-1.37-103.68,1.16-148.75,2-35.35,5.35-70.56,3.36-106C3021.15,808.48,3005.71,728,2952.06,683.56Z"/></clipPath><clipPath id="clip-path-2"><path class="cls-2" d="M3208.07,1581.59c-21.21-35.84-62.13-65.92-99.86-82.59-267.5-118.15-513.86,441.19-517.9,584.54s-46.43,175.65-286.73,165-183,155.81-183.85,240.82,28.42,167.58-156.16,186S1817,2759.91,1817,2759.91s183.73,401.78,201.9,300.83,98.94-234.21,363.43-151.43c113.92,35.66,305,43.92,386.31-62.57,18.93-24.8,40.46-65.32,44.14-96.71,5.09-43.54-9.9-84.68-10.94-127.76-2.44-100.4,106.35-134.16,176.79-175.35,36.77-21.51,73.81-43.8,106.11-71.78,67.06-58.1,79.83-141.67,59.44-224.78-9.78-39.85-27.17-84.66-22.68-126.38,4.82-44.83,33.79-98,51.42-139.58,13.83-32.59,28.91-64.59,39-98.61C3230.81,1722.51,3243.54,1641.51,3208.07,1581.59Z"/></clipPath><linearGradient id="linear-gradient-5" x1="1298.51" y1="1945.89" x2="880.33" y2="1991.51" gradientTransform="matrix(-1, 0, 0, 1, 3475.88, 0)" gradientUnits="userSpaceOnUse"><stop offset="0" stop-color="#444b8c"/><stop offset="1" stop-color="#26264f"/></linearGradient><linearGradient id="linear-gradient-6" x1="1666.97" y1="891.78" x2="632.93" y2="4412.08" xlink:href="#linear-gradient-5"/><linearGradient id="linear-gradient-7" x1="1279.49" y1="805.07" x2="64.22" y2="4096.45" gradientTransform="matrix(-1, 0, 0, 1, 3475.88, 0)" gradientUnits="userSpaceOnUse"><stop offset="0" stop-color="#ffc444"/><stop offset="1" stop-color="#f36f56"/></linearGradient><linearGradient id="linear-gradient-8" x1="8521.06" y1="8271.55" x2="7689.81" y2="9055.39" gradientTransform="translate(99.95 18234.43) rotate(180)" gradientUnits="userSpaceOnUse"><stop offset="0" stop-color="#311944"/><stop offset="1" stop-color="#893976"/></linearGradient><linearGradient id="linear-gradient-9" x1="734.21" y1="1315.73" x2="1400.33" y2="711.25" xlink:href="#linear-gradient-2"/><linearGradient id="linear-gradient-10" x1="-554.9" y1="1841.34" x2="-422.9" y2="1975.7" gradientTransform="matrix(-1, 0, 0, 1, 854.2, 0)" xlink:href="#linear-gradient-7"/><linearGradient id="linear-gradient-11" x1="-227.71" y1="3117.58" x2="-228.82" y2="2819.51" gradientTransform="matrix(-1, 0, 0, 1, 854.2, 0)" gradientUnits="userSpaceOnUse"><stop offset="0" stop-color="#aa80f9"/><stop offset="1" stop-color="#6165d7"/></linearGradient><linearGradient id="linear-gradient-12" x1="-3296.22" y1="3422.24" x2="-3294.38" y2="3267.58" gradientTransform="matrix(-1, 0.08, 0.08, 1, -2506.73, 65.44)" xlink:href="#linear-gradient-7"/><linearGradient id="linear-gradient-13" x1="-51.98" y1="3116.92" x2="-53.09" y2="2818.85" xlink:href="#linear-gradient-11"/><linearGradient id="linear-gradient-14" x1="-3117.38" y1="3424.37" x2="-3115.54" y2="3269.7" gradientTransform="matrix(-1, 0.08, 0.08, 1, -2506.73, 65.44)" xlink:href="#linear-gradient-7"/><linearGradient id="linear-gradient-15" x1="-192.8" y1="2437.29" x2="-83.54" y2="2995.85" gradientTransform="matrix(-1, 0, 0, 1, 854.2, 0)" xlink:href="#linear-gradient-8"/><linearGradient id="linear-gradient-16" x1="-3385.39" y1="2924.83" x2="-3220.72" y2="2924.83" gradientTransform="matrix(-1, 0.08, 0.08, 1, -2506.73, 65.44)" xlink:href="#linear-gradient-8"/><linearGradient id="linear-gradient-17" x1="-3292.42" y1="2948.36" x2="-3042.44" y2="2948.36" gradientTransform="matrix(-1, 0.08, 0.08, 1, -2506.73, 65.44)" xlink:href="#linear-gradient-8"/><linearGradient id="linear-gradient-18" x1="-353.35" y1="1918.85" x2="-169" y2="3102.82" xlink:href="#linear-gradient-11"/><linearGradient id="linear-gradient-19" x1="-3059.65" y1="3408.37" x2="-2875.29" y2="4592.34" gradientTransform="matrix(-1, 0.08, 0.08, 1, -2506.73, 65.44)" xlink:href="#linear-gradient-11"/><linearGradient id="linear-gradient-20" x1="-2790.02" y1="2978.02" x2="-3347.92" y2="2177.08" gradientTransform="matrix(-1, 0.08, 0.08, 1, -2506.73, 65.44)" xlink:href="#linear-gradient-11"/><linearGradient id="linear-gradient-21" x1="167.44" y1="2228.17" x2="63.65" y2="2368.38" gradientTransform="matrix(-1, 0, 0, 1, 854.2, 0)" xlink:href="#linear-gradient-7"/><linearGradient id="linear-gradient-22" x1="-2843.79" y1="3374.76" x2="-2659.44" y2="4558.74" gradientTransform="matrix(-1, 0.08, 0.08, 1, -2506.73, 65.44)" xlink:href="#linear-gradient-11"/><linearGradient id="linear-gradient-23" x1="-4522.64" y1="5246.97" x2="-4522.64" y2="5087.48" gradientTransform="matrix(-0.78, 0.63, 0.63, 0.78, -5831.11, 622.2)" xlink:href="#linear-gradient-7"/><linearGradient id="linear-gradient-24" x1="-3260.12" y1="2034.68" x2="-3326.83" y2="1865.25" gradientTransform="matrix(-1, 0.08, 0.08, 1, -2506.73, 65.44)" gradientUnits="userSpaceOnUse"><stop offset="0" stop-color="#444b8c"/><stop offset="1" stop-color="#3e4177"/></linearGradient><linearGradient id="linear-gradient-25" x1="-4635.37" y1="5201" x2="-4560.8" y2="5056.01" gradientTransform="matrix(-0.78, 0.63, 0.63, 0.78, -5831.11, 622.2)" xlink:href="#linear-gradient-7"/><linearGradient id="linear-gradient-26" x1="1315.82" y1="1978.01" x2="2658.88" y2="1978.01" gradientTransform="matrix(1, 0, 0, 1, 0, 0)" xlink:href="#linear-gradient-8"/><linearGradient id="linear-gradient-27" x1="2132.36" y1="4619.55" x2="1972.21" y2="1845.63" gradientUnits="userSpaceOnUse"><stop offset="0" stop-color="#f36f56"/><stop offset="1" stop-color="#ffc444"/></linearGradient><linearGradient id="linear-gradient-28" x1="1497" y1="1831.95" x2="2463.31" y2="1831.95" xlink:href="#linear-gradient-27"/><linearGradient id="linear-gradient-29" x1="1462.84" y1="2085.47" x2="2428.4" y2="2085.47" xlink:href="#linear-gradient-27"/><linearGradient id="linear-gradient-30" x1="1937.43" y1="2179.07" x2="1721.59" y2="3547.86" xlink:href="#linear-gradient-27"/><linearGradient id="linear-gradient-31" x1="2008.44" y1="753.92" x2="2054.53" y2="2126.6" xlink:href="#linear-gradient-27"/></defs><title>Wavy_Tech-28_Single-10 [Converted]</title><g class="cls-3"><g id="Background"><rect class="cls-4" width="3710" height="3710"/></g><g id="Illustration"><path class="cls-5" d="M3189.92,1539.2c-30.3-373.58-45.45-560.36-116-681.22C2872,512,2285,429.65,1914.24,461.21,1417.88,503.44,850.05,788.78,600.1,1339.71,373.08,1840.1,477.76,2406.51,819.83,2777,1446.89,3456.24,2740.4,3335,3056.37,2889.29c126.11-177.87,135.2-462,148.55-879.3C3211.35,1809.1,3198.82,1649,3189.92,1539.2Z"/><path class="cls-1" d="M2952.06,683.56c-32.09-26.55-80.77-41-121.91-43.92-291.7-20.67-334.26,589-289.56,725.3s15.74,181-214,252.29-119.52,208.55-91.51,288.82,83.45,148.08-84,227.84-109.28,129.17-109.28,129.17,308.85,315.91,291.79,214.77,13.84-253.86,290.75-265.46c119.26-5,301.91-61.9,342.35-189.6,9.42-29.74,16-75.16,8.81-105.94-9.94-42.7-38-76.34-53.53-116.53-36.26-93.65,54.69-162.23,107-224.83,27.32-32.68,54.64-66.19,75.56-103.45,43.45-77.36,27.19-160.32-20.12-231.63-22.69-34.19-54.22-70.47-64.11-111.25-10.63-43.82-1.37-103.68,1.16-148.75,2-35.35,5.35-70.56,3.36-106C3021.15,808.48,3005.71,728,2952.06,683.56Z"/><g class="cls-6"><g class="cls-7"><path class="cls-4" d="M2017.51,2440.37a4.31,4.31,0,0,1-3.46-7.88c1.3-.68,131.32-69.07,276.36-181.71,133.65-103.79,307.76-267.45,378.25-457.69,58.88-158.9,112.58-421.57,147.32-720.67,31.16-268.21,36.08-466.57,22.84-503.39a4.31,4.31,0,1,1,8.11-2.92c15.49,43.07,5.66,265.91-22.38,507.3-34.82,299.76-88.69,563.16-147.8,722.67-71.21,192.2-246.59,357.11-381.17,461.61-145.63,113.08-276.23,181.76-277.53,182.44Q2017.78,2440.26,2017.51,2440.37Z"/><path class="cls-4" d="M2815.51,1124.41c-2.24.8-4.51.18-5.32-2.05-1.09-2.95-109.82-295.5-250.05-361.55a4.14,4.14,0,0,1-2-5.61,4.32,4.32,0,0,1,5.76-2c143.43,67.56,249.91,354,254.38,366.16.82,2.23-.5,4.24-2.74,5Z"/><path class="cls-4" d="M2762.48,1463.68a4.31,4.31,0,0,1-4.2-7.39c.79-.66,80.85-66.33,179.64-121.44,133.47-74.46,235.76-95.25,304-61.78a4.31,4.31,0,1,1-3.8,7.74c-157-77-471.22,179.54-474.38,182.14A4.32,4.32,0,0,1,2762.48,1463.68Z"/><path class="cls-4" d="M2413.92,2157.15a4,4,0,0,1-1.39.25,4.31,4.31,0,0,1-4.38-4.24c0-1.26-2.24-126.78-28.51-259-24.09-121.26-73.83-273.15-174-308.15a4.32,4.32,0,1,1,2.85-8.15c83.52,29.19,143.95,135.08,179.62,314.73,26.41,133,28.64,259.2,28.66,260.46A4.32,4.32,0,0,1,2413.92,2157.15Z"/><path class="cls-4" d="M2592.15,1954.36a4.31,4.31,0,0,1-4-7.52c13.88-10.27,341.52-251.15,469.29-228.14a4.31,4.31,0,0,1-1.52,8.49c-124.16-22.35-459.28,224.09-462.65,226.58A3.92,3.92,0,0,1,2592.15,1954.36Z"/></g></g><path class="cls-2" d="M3208.07,1581.59c-21.21-35.84-62.13-65.92-99.86-82.59-267.5-118.15-513.86,441.19-517.9,584.54s-46.43,175.65-286.73,165-183,155.81-183.85,240.82,28.42,167.58-156.16,186S1817,2759.91,1817,2759.91s183.73,401.78,201.9,300.83,98.94-234.21,363.43-151.43c113.92,35.66,305,43.92,386.31-62.57,18.93-24.8,40.46-65.32,44.14-96.71,5.09-43.54-9.9-84.68-10.94-127.76-2.44-100.4,106.35-134.16,176.79-175.35,36.77-21.51,73.81-43.8,106.11-71.78,67.06-58.1,79.83-141.67,59.44-224.78-9.78-39.85-27.17-84.66-22.68-126.38,4.82-44.83,33.79-98,51.42-139.58,13.83-32.59,28.91-64.59,39-98.61C3230.81,1722.51,3243.54,1641.51,3208.07,1581.59Z"/><g class="cls-8"><g class="cls-7"><path class="cls-4" d="M1734.18,2918.53a4.31,4.31,0,0,1-.58-8.58c1.45-.2,146.94-20.56,321.55-77.48C2216,2780,2435.24,2684.94,2566,2529.77c109.17-129.6,248.58-358.61,382.49-628.31,120.07-241.84,191.82-426.84,191.82-466a4.32,4.32,0,0,1,8.63,0c0,45.78-84.66,252.14-192.73,469.81-134.19,270.29-274,499.92-383.61,630-132.05,156.76-352.88,252.6-514.88,305.39-175.31,57.13-321.44,77.57-322.89,77.77A4,4,0,0,1,1734.18,2918.53Z"/><path class="cls-4" d="M2930.4,1951.11a4.23,4.23,0,0,1-4.32-4.17c0-3.14-3.34-315.45-112.95-425a4.3,4.3,0,1,1,6.1-6.06c112.11,112.11,115.39,418.07,115.48,431.05a4.21,4.21,0,0,1-4.29,4.23Z"/><path class="cls-4" d="M2765.7,2251.54a4.32,4.32,0,0,1-1.46-8.38c1-.34,98.54-35.06,210.14-53.49,150.8-24.91,254.08-9.85,307,44.74a4.31,4.31,0,0,1-6.2,6c-121.74-125.6-504.18,9.5-508,10.87A4.11,4.11,0,0,1,2765.7,2251.54Z"/><path class="cls-4" d="M2203.05,2786.16a4.3,4.3,0,0,1-4.08-5.71c.4-1.19,40.79-120,60.82-253.4,18.36-122.25,22.95-282-59.46-348.84a4.32,4.32,0,0,1,5.44-6.7c68.71,55.72,89.75,175.81,62.53,356.94-20.15,134.1-60.76,253.6-61.17,254.79A4.32,4.32,0,0,1,2203.05,2786.16Z"/><path class="cls-4" d="M2439.38,2655.64a4.31,4.31,0,0,1-1.24-8.44c16.54-5,406.36-120.76,518.81-55.88a4.31,4.31,0,1,1-4.31,7.47c-109.26-63-508,55.47-512,56.67A4.43,4.43,0,0,1,2439.38,2655.64Z"/></g></g><path class="cls-9" d="M2311.39,574,2308.31,596a172.48,172.48,0,0,0-30.08,4l-8.33-20.58a10.94,10.94,0,0,0-14.35-5.95L2220.18,588a11.17,11.17,0,0,0-6.16,14.42l8.39,20.84a177.64,177.64,0,0,0-24.21,18.48L2180.42,628a11.12,11.12,0,0,0-15.55,2l-23.76,30.4a11.06,11.06,0,0,0,1.8,15.58l17.83,13.87a177.59,177.59,0,0,0-12,28.16l-22.63-3a11.37,11.37,0,0,0-12.65,9.63l-5.68,38.34a11,11,0,0,0,9.38,12.58l22.69,3a175.23,175.23,0,0,0,3.42,30.44L2122,818a11.5,11.5,0,0,0-6.3,14.75l14.19,36.06a11,11,0,0,0,14.54,6.1l21.31-8.92A175.17,175.17,0,0,0,2184,890.51L2169.8,909a11.43,11.43,0,0,0,1.84,15.95l30.45,23.88a11.17,11.17,0,0,0,15.77-2.15l14-18.31a171.61,171.61,0,0,0,28.34,11.91l-3.2,22.86a11.22,11.22,0,0,0,9.55,12.79l38.43,5a11.41,11.41,0,0,0,12.68-9.88l3.1-22.68a172.81,172.81,0,0,0,30.71-4.06l8.43,21a11.06,11.06,0,0,0,14.63,6.13l35.84-15.18a11.52,11.52,0,0,0,6.11-14.91l-8.43-20.81a178.79,178.79,0,0,0,24.63-19.15L2450.23,915a11.07,11.07,0,0,0,15.67-2.14l23.48-31.12a11.42,11.42,0,0,0-2.07-15.85L2470,852.41a179.13,179.13,0,0,0,11.78-28.95l21.7,2.85a11.15,11.15,0,0,0,12.46-9.71l4.93-38.45a11.18,11.18,0,0,0-9.58-12.54l-21.64-2.84a176.47,176.47,0,0,0-4-30.75l20.07-8.4a11.16,11.16,0,0,0,6-14.56L2497,673.61a11,11,0,0,0-14.44-6L2462.37,676a175.78,175.78,0,0,0-18.63-24.29l13.33-17.41a11.06,11.06,0,0,0-2-15.49l-30.15-23.17a11,11,0,0,0-15.45,2.05L2396,615.16a171.66,171.66,0,0,0-28.1-11.51l3-21.89a10.93,10.93,0,0,0-9.42-12.33l-37.67-4.94A11.11,11.11,0,0,0,2311.39,574ZM2178.58,752.65c10.89-75.76,80.42-128.87,155.37-119s127.59,79,117.52,154.83c-10.13,76.33-79.81,130.49-155.58,120.55S2167.63,828.87,2178.58,752.65Z"/><path class="cls-9" d="M1733.77,562,1729,596.11a267.58,267.58,0,0,0-46.5,6.16l-12.89-31.82a16.92,16.92,0,0,0-22.19-9.2l-54.68,22.53a17.24,17.24,0,0,0-9.52,22.29l13,32.22a276.37,276.37,0,0,0-37.43,28.58l-27.49-21.31a17.19,17.19,0,0,0-24,3.17l-36.74,47a17.12,17.12,0,0,0,2.78,24.09l27.57,21.43a274.88,274.88,0,0,0-18.49,43.55l-35-4.59a17.59,17.59,0,0,0-19.55,14.9L1419,854.4a17,17,0,0,0,14.5,19.45l35.1,4.6a271.44,271.44,0,0,0,5.27,47.07L1441,939.25a17.79,17.79,0,0,0-9.74,22.81l21.94,55.75a17,17,0,0,0,22.48,9.43l32.95-13.79a270.71,270.71,0,0,0,28.22,38l-22,28.51a17.65,17.65,0,0,0,2.85,24.65l47.06,36.93a17.27,17.27,0,0,0,24.39-3.33l21.7-28.32a264,264,0,0,0,43.81,18.42l-4.94,35.35a17.35,17.35,0,0,0,14.75,19.78l59.43,7.79a17.63,17.63,0,0,0,19.6-15.27l4.8-35.08a268.07,268.07,0,0,0,47.48-6.26l13,32.41a17.11,17.11,0,0,0,22.61,9.48l55.42-23.48a17.8,17.8,0,0,0,9.44-23l-13-32.18a276.54,276.54,0,0,0,38.08-29.61l27.09,21a17.12,17.12,0,0,0,24.24-3.3l36.29-48.11a17.64,17.64,0,0,0-3.2-24.51l-26.84-20.8a275.17,275.17,0,0,0,18.21-44.76l33.56,4.4a17.23,17.23,0,0,0,19.27-15l7.61-59.44a17.28,17.28,0,0,0-14.81-19.4l-33.46-4.39a271.68,271.68,0,0,0-6.16-47.54l31-13a17.27,17.27,0,0,0,9.23-22.52l-22.67-54.79a17.05,17.05,0,0,0-22.32-9.26l-31.22,13a269.28,269.28,0,0,0-28.8-37.56L1959,655.36a17.1,17.1,0,0,0-3.12-24l-46.63-35.82a17,17,0,0,0-23.88,3.16l-20.76,27a264.49,264.49,0,0,0-43.46-17.79l4.63-33.85A16.89,16.89,0,0,0,1811.23,555L1753,547.36A17.18,17.18,0,0,0,1733.77,562ZM1528.42,838.29c16.83-117.14,124.34-199.26,240.22-184.06s197.27,122.1,181.71,239.4c-15.66,118-123.39,201.75-240.54,186.38S1511.48,956.13,1528.42,838.29Z"/><path class="cls-10" d="M1678,892.3,1423.28,3009.84c-3.82,31.75,18.06,60.21,48.71,63.25l1061.12,116.49c65,4.05,100.6-29.16,104.61-62.92l267.47-2251.3c4-33.57-27.9-64-93.18-64L1741.23,833.94C1710.24,834.46,1681.84,860.72,1678,892.3Z"/><path class="cls-11" d="M1630.28,888.66,1374.12,3016.79c-3.84,31.9,18.12,60.51,48.88,63.58l1100.09,109.52c34.49,3.43,66.09-21.52,70.13-55.45l269-2262.93c4-33.75-21.32-60.87-56.19-60.28L1693.72,830C1662.61,830.52,1634.1,856.92,1630.28,888.66Z"/><path class="cls-9" d="M1651.15,1006l-237.42,1973.2c-3.59,29.81,17,56.49,45.77,59.29L2494.09,3139.1c32.06,3.11,61.45-20.17,65.2-51.76L2807.86,996.92c3.74-31.43-19.78-56.85-52.17-56.51l-1045.2,11.13C1681.39,951.85,1654.73,976.38,1651.15,1006Z"/><path class="cls-12" d="M2206,887.19c-1.36,11.33,6.77,20.4,18.17,20.26s21.77-9.47,23.13-20.82-6.81-20.42-18.22-20.25S2207.31,875.87,2206,887.19Z"/><g class="cls-13"><path class="cls-4" d="M1830,2330.58c211.8-391.6,528.2-508.81,623.46-912.39,51.5-218.16,16.41-427-42.68-600.29L2806,811.23c34.87-.59,60.2,26.53,56.19,60.28l-269,2262.93c-4,33.93-35.64,58.88-70.14,55.45l-864.77-86.1C1651.92,2752.91,1735.61,2505.13,1830,2330.58Z"/></g><path class="cls-14" d="M585.86,1113.23c0-208.08,181.5-376.73,399.32-376.71,211.38,0,378.2,159.81,378.2,356.87s-166.82,365.36-378.2,376.17C767.36,1480.7,585.86,1321.31,585.86,1113.23Z"/><path class="cls-15" d="M609.34,1096.64c0-208.08,176.25-376.74,387.77-376.71,205.27,0,367.26,159.8,367.26,356.87s-162,365.36-367.26,376.17C785.59,1464.11,609.34,1304.71,609.34,1096.64Z"/><g class="cls-16"><path class="cls-4" d="M669.68,1095.05c0-174.81,148.08-316.51,325.79-316.49,172.46,0,308.56,134.26,308.56,299.83s-136.1,306.95-308.56,316C817.76,1403.79,669.68,1269.87,669.68,1095.05Z"/></g><path class="cls-17" d="M983.24,805.42c172.45,0,308.55,134.26,308.55,299.83A302.83,302.83,0,0,1,1270,1217.77,304.46,304.46,0,0,0,1304,1078.39c0-165.57-136.1-299.81-308.56-299.83-137.06,0-256.42,84.3-303.89,203.06C745.34,877.22,856.76,805.41,983.24,805.42Z"/><path class="cls-4" d="M848.13,1052.26v152.58c0,44.12,37.11,78.91,82.75,77.72l113.17-3c45.09-1.18,81.53-37.51,81.53-81.17v-151ZM952.35,1210l21-63.73a27.51,27.51,0,0,1-15.12-24.48c0-15.66,13.14-28.61,29.32-28.91s29.25,12.11,29.25,27.74a28.87,28.87,0,0,1-15.06,25.06l21,62.68Z"/><path class="cls-4" d="M1093.41,1034.25c-12,.2-21.74-9.09-21.74-20.75,0-44.85-37.65-80.85-84.08-80.26-46.6.6-84.62,37.81-84.62,83,0,11.74-9.88,21.42-22.07,21.62s-22.1-9.16-22.1-20.92c0-68.69,57.93-125.23,128.79-126,70.47-.79,127.53,53.91,127.53,121.93C1115.12,1024.45,1105.41,1034.05,1093.41,1034.25Z"/><path class="cls-18" d="M1355.52,1904.52s-7.69-28.86-2.24-36.24,38.8-36.88,35.6-27.26a62.08,62.08,0,0,1-8,16s18,8.33,6.41,20.84-15.4,15.39-16,26.62S1363.22,1919.59,1355.52,1904.52Z"/><path class="cls-19" d="M1035.17,3150.29s-4.08,25-3.56,33.84,99.09,13.43,100.09,6.77-16.29-17.23-28.46-21-47.79-13.7-47.79-13.7Z"/><path class="cls-20" d="M1059.09,3125.41l-3.14,31s-11.45,7.57-21.54,1.73l-5.05-33.78Z"/><path class="cls-21" d="M859.28,3190.75s-4.07,25-3.56,33.85,99.1,13.42,100.1,6.77-16.3-17.24-28.47-21-47.78-13.7-47.78-13.7Z"/><path class="cls-22" d="M883.21,3165.87l-3.14,31s-11.45,7.56-21.54,1.72l-5-33.78Z"/><path class="cls-23" d="M1041.21,2315.15l34.18,69.3c9.16,131.84,13.72,275.19,10.79,428.5-2.17,114.06-8.27,222.11-17,323.53l-46.35-2.12c-22.34-44.34-48.72-111.52-51.14-194.44-2.54-86.49,23.69-98,22-180.79-2.15-107.34-47.16-136-71.14-265.09-9.17-49.37-15.35-113.86-8-192.11Z"/><path class="cls-24" d="M914.54,2301.93l68.41,7.14c41,71.43,52.5,145.78,45.3,178.66-10.19,46.53-37.14,61.43-35.66,108.14,1.46,46.22,28.69,58.21,46,112.69,12,37.72,8.8,72.4,2,140.22-13.7,136.61-46.69,178.39-19.06,223.18,7.85,12.72,22,27.88,49.72,39.45-.68,8.38-1.35,16.78-2.06,25.07l-46.35-2.12c-22.34-44.35-48.72-111.52-51.14-194.44-2.54-86.49,23.69-98,22-180.79-2.15-107.34-47.16-136-71.14-265.08C913.38,2444.67,907.2,2380.18,914.54,2301.93Z"/><path class="cls-25" d="M979.9,2356.74c-21.39,116.64-40.28,241.47-55,373.85-17.8,159.85-27.3,310.55-31,450.47L843,3182.5c-66.82-132.19-70.91-221.81-61.27-280.17,3.71-22.48,13.79-66.57,16.1-132.46,1.6-45.93-1.33-80.89-5-122.91-8-92.13-17.76-112.24-19.16-182.71-1.32-66.14-1.59-99.6,17.29-119.14C840.69,2293.65,970.09,2352.18,979.9,2356.74Z"/><path class="cls-26" d="M1346.65,1900.07l33.83-2.36c26.61,107.51,7.52,211.79-52.52,250.14-93.81,59.93-268.16-53-305.94-175.89-16.59-54-12.81-131.82,20.33-147,9.2-4.2,23.48-4.86,54.41,12.51,92.37,51.86,94.8,149.88,141.75,158.18C1259.39,1999.39,1293.11,1986.08,1346.65,1900.07Z"/><path class="cls-27" d="M1088.37,2408.1c16.25-26.95-4.16-53-8.81-104-5.26-57.89,17-67.53,39.09-163.46,14.67-63.8,28.75-125.05,11.94-196.75-8-34.36-21.71-92.64-69.94-120.79-24.89-14.53-58.88-13.08-125.83-9.57-82.8,4.33-124.2,6.49-155.07,22.75-4.52,2.38-98.44,53.47-104.91,136.74-6.58,84.76,85.73,96.15,98,209.18,5.52,50.74-4.33,128.78-10.72,179.4-6.13,48.6-10.35,61-.76,75.75,23.11,35.47,93.88,25.36,235.43,5.15C1052.35,2434.54,1076.24,2428.22,1088.37,2408.1Z"/><path class="cls-28" d="M873,2164c-6,22-27.51,38.48-42.49,92.07-3.24,11.57-26.28,94,3.61,114.23,17.26,11.71,32.76-10.48,74.66-13.37,72.6-5,107.19,56,154.62,39.33,8.22-2.89,19.09-9.06,29.93-23.22,2.16,12.76,1.79,23.85-5,35.07-12.13,20.12-36,26.44-91.54,34.37-141.55,20.21-212.32,30.32-235.43-5.15-9.59-14.71-5.37-27.15.76-75.75,6.39-50.62,16.24-128.66,10.72-179.4-12.31-113-104.62-124.42-98-209.18,1.76-22.65,10.1-42.83,21.24-60.39C813.18,1960,891.82,2094.76,873,2164Z"/><path class="cls-29" d="M725.12,2330.71l23.42,15c4.21-4.86,14-14.66,29.15-18,17.14-3.77,36.8,1.63,37.26,7.1.36,4.38-11.61,8.8-13.46,9.48-15,5.52-26,.94-32.08,6.95-2.14,2.12-4.8,6.07-10.93,9.74a31.85,31.85,0,0,1-4.18,2.15c-10,3.88-27.09-13.49-28.56-15Z"/><path class="cls-30" d="M794.33,2023.45c16.95-40.59,28.69-102.74,1.92-195-176.38,69.5-266.33,234.26-231.21,364.87C594,2301,699.33,2353.4,722.83,2364.43l16.41-37.33c-27.24-30.33-57.92-75.16-53.58-126.33C691.67,2129.83,760,2105.62,794.33,2023.45Z"/><path class="cls-31" d="M930.48,1730s-1.39,30.85-11,54c-8.65,20.88-54.18,34-63.4,38.67s17.28,18.28,43.91,21,102.68-3.37,116.39-13.46-11-9.34-30-16.32-30-44.14-26.64-61S930.48,1730,930.48,1730Z"/><path class="cls-32" d="M972.6,1718.81c13.82-13.57,15.75-15.16,17.25-19.85,6-18.84-8.57-44.63-27.73-51-1-.33-13.84-4.44-18.75,1.13-4.16,4.74,2,11.28-1,20.4-2.73,8.54-10.13,9.18-23.86,20.38-11.3,9.23-18.33,15-19.95,23-3.34,16.63,16.79,40.73,34.61,40.08C939.63,1752.76,941.38,1749.49,972.6,1718.81Z"/><path class="cls-33" d="M935,1755.57s14.69,16.63,37.06,11.13c20-4.92,14.92-50.9.26-58.25-4.89-2.44-13.78-2.24-20.46,1-4,1.9-5,3.88-11.55,6.86-6,2.75-7.91,2.37-9.53,4.31-2,2.42-2.89,7.63,3.44,20.22-4.56-3.23-9.47-3.91-12.48-1.77a6.93,6.93,0,0,0-2.23,3.11C917.57,1747.85,923.49,1753.64,935,1755.57Z"/><path class="cls-34" d="M2610.23,1133l5.18,27.91h0l-106.43.25-923.6,2.19c-23.76.05-45.61,19.69-48.87,43.87L1316,2680.77c-3.28,24.39,34.69,61.62,58.31,63.44l409.75,31.49v-.49l612.92,47h0l1.49.62c26.17,2,50.18-17,53.58-42.73v.1L2658.58,1207C2661.93,1181.44,2636.55,1133,2610.23,1133Z"/><path class="cls-35" d="M2431.2,2749.45c-3.38,25.77-27.38,45-53.55,43l-1025.24-78.72c-23.61-1.82-40-23.06-36.76-47.45l200.43-1489.2c3.25-24.17,25.1-43.81,48.84-43.87l1031-2.84c26.31-.07,45,20.56,41.62,46.08Z"/><path class="cls-4" d="M2444.82,1930.48c-1.68,12.76-13.6,22.28-26.62,21.8l-902.34-32.93c-11.91-.43-20.28-10.24-18.65-22.43L1515,1765.43c1.64-12.18,12.51-20.42,24.43-20.09l903.12,25.08c13,.36,22.28,9.57,20.6,22.33Z"/><path class="cls-4" d="M2409.88,2197.65c-1.69,12.79-13.62,23.7-26.63,23l-901.65-44.54c-11.9-.59-20.19-12-18.55-24.18l17.88-134c1.64-12.2,12.62-22.65,24.52-22.17l902.2,36.39c13,.53,22.23,12.31,20.55,25.08Z"/><path class="cls-36" d="M2463.18,1792.21a24.72,24.72,0,0,0-6.89-1.14L1553.15,1766c-11.92-.35-22.8,7.91-24.42,20.07L1511,1917.57c0,.35-.07.66-.11,1-9.15-2.58-15-11.26-13.66-21.66L1515,1765.42c1.62-12.15,12.5-20.42,24.41-20.07l903.15,25.06C2455.33,1770.79,2464.52,1779.71,2463.18,1792.21Z"/><path class="cls-37" d="M2428.4,2054.3a21.21,21.21,0,0,0-7-1.48l-902.18-36.39c-11.91-.49-22.9,10-24.51,22.17l-17.91,134a21.84,21.84,0,0,0-.17,2.55c-9.16-3-15-12.81-13.6-23.21l17.9-134c1.62-12.19,12.61-22.65,24.52-22.17l902.18,36.39A21.83,21.83,0,0,1,2428.4,2054.3Z"/><path class="cls-38" d="M2170.08,2414.2c2.66-20.17-11.6-38.75-31.87-39.92l-466.75-26.8c-19.33-1.11-37.18,15.17-39.81,34.81l-19.26,145.18c-2.63,19.67,10.78,38.49,30.09,39.81L2109,2599.2c20.26,1.39,38.92-15.72,41.59-35.92Z"/><path class="cls-39" d="M2205.33,1436.07c-6.15,46.41-30,88.3-63.89,119.11-36.53,33.22-84.65,53.44-134.69,52.48-49.79-1-91.69-22.72-118.6-56.69-24.83-31.3-37-73-30.89-118.66,12.67-94.93,99.88-171.67,195.6-171.44C2149.47,1261.09,2218.11,1339.52,2205.33,1436.07Z"/><path class="cls-4" d="M2112.25,1383.32c-5.51,41.58-43.89,74.89-85.56,74.39-41.5-.49-70.57-34.36-65.07-75.64s43.49-74.56,85-74.37C2088.32,1307.89,2117.77,1341.74,2112.25,1383.32Z"/><path class="cls-4" d="M2141.44,1555.18c-36.53,33.22-84.65,53.44-134.69,52.48-49.79-1-91.69-22.72-118.6-56.69,30.8-42.91,81.59-71.45,135.55-70.74C2077.93,1480.93,2121.65,1511,2141.44,1555.18Z"/><path class="cls-40" d="M2637.57,1176.47l-206.37,1573c-3.38,25.76-28.91,44.92-55.07,42.91l-615.77-47.29a328.11,328.11,0,0,1-70.53-109,336.81,336.81,0,0,1-18.73-68c-11.43-66.42-7-141.91,9.67-216a713.54,713.54,0,0,1,58.65-164.19c20.58-40.63,44.78-77.78,71.81-109,19.46-22.47,40.51-44.3,62.71-65.71,26.77-25.84,55.22-51.06,84.57-76.05,68.38-58.27,141.62-115.24,209.42-175.4,156.44-138.78,283.36-293.85,252.82-515.11-1-7-10.51-60.34-22.69-115.66l196.36-.54C2620.72,1130.32,2640.92,1151,2637.57,1176.47Z"/></g></g></svg>